<svg id="svg" version="1.1" xmlns="http://www.w3.org/2000/svg" xmlns:xlink="http://www.w3.org/1999/xlink" width="400" height="230.10546500479387" viewBox="0, 0, 400,230.10546500479387"><g id="svgg"><path id="path0" d="M17.031 68.815 C 17.031 68.941,17.119 69.045,17.226 69.045 C 17.334 69.045,18.959 71.194,20.838 73.820 C 22.717 76.447,24.338 78.631,24.440 78.673 C 24.542 78.715,24.626 78.855,24.626 78.985 C 24.626 79.193,25.885 80.943,26.250 81.243 C 26.328 81.306,26.768 82.135,27.230 83.084 C 27.691 84.033,28.330 84.996,28.649 85.224 L 29.229 85.637 29.229 78.297 L 29.229 70.958 28.654 70.289 C 28.338 69.921,28.079 69.550,28.079 69.464 C 28.078 69.378,27.916 69.145,27.717 68.946 C 27.286 68.515,17.031 68.389,17.031 68.815 M113.482 101.208 C 113.471 101.387,113.117 101.496,112.543 101.496 C 112.037 101.496,111.623 101.586,111.623 101.696 C 111.623 101.806,111.271 101.953,110.842 102.023 C 109.979 102.163,107.566 103.242,107.356 103.582 C 107.283 103.700,107.015 103.797,106.762 103.797 C 106.509 103.797,106.361 103.894,106.434 104.011 C 106.507 104.129,106.359 104.290,106.107 104.370 C 105.690 104.503,104.796 105.347,103.227 107.089 C 102.908 107.444,102.647 107.884,102.647 108.067 C 102.647 108.250,102.556 108.400,102.445 108.400 C 102.282 108.400,102.012 109.170,101.867 110.050 C 101.853 110.134,101.764 110.281,101.669 110.376 C 101.574 110.471,101.496 110.842,101.496 111.201 C 101.496 111.559,101.392 111.853,101.266 111.853 C 100.969 111.853,100.958 116.550,101.254 117.092 C 101.374 117.312,101.536 117.983,101.613 118.585 C 101.691 119.186,101.832 119.678,101.928 119.678 C 102.089 119.678,102.943 121.211,102.977 121.561 C 102.985 121.648,103.484 122.269,104.086 122.942 C 104.687 123.615,105.269 124.269,105.378 124.396 C 105.487 124.522,105.808 124.781,106.090 124.971 C 106.573 125.296,107.230 125.805,107.883 126.357 C 108.041 126.491,108.170 126.537,108.170 126.460 C 108.170 126.383,108.333 126.482,108.532 126.681 C 108.731 126.880,109.042 127.043,109.222 127.043 C 109.403 127.043,109.551 127.123,109.551 127.222 C 109.551 127.321,110.077 127.606,110.720 127.855 C 111.363 128.104,112.089 128.495,112.334 128.723 C 112.579 128.951,112.874 129.079,112.991 129.007 C 113.107 128.935,113.267 128.982,113.346 129.110 C 113.426 129.239,113.744 129.344,114.053 129.344 C 114.362 129.344,114.614 129.448,114.614 129.574 C 114.614 129.701,114.873 129.804,115.190 129.804 C 115.506 129.804,115.765 129.895,115.765 130.005 C 115.765 130.116,116.177 130.272,116.681 130.352 C 117.185 130.433,118.059 130.757,118.624 131.072 C 119.189 131.388,119.757 131.646,119.887 131.646 C 120.190 131.646,122.371 133.024,122.082 133.033 C 121.962 133.037,122.048 133.147,122.272 133.278 C 122.496 133.408,122.619 133.612,122.546 133.731 C 122.472 133.850,122.522 133.947,122.656 133.947 C 123.059 133.947,122.947 136.045,122.519 136.518 C 122.265 136.799,122.233 136.939,122.422 136.939 C 122.840 136.939,121.544 137.956,120.502 138.446 C 119.183 139.065,116.179 139.025,114.784 138.370 C 114.213 138.101,113.475 137.813,113.146 137.731 C 112.816 137.648,112.588 137.513,112.639 137.430 C 112.690 137.348,112.327 137.083,111.832 136.842 C 111.337 136.602,110.932 136.318,110.932 136.212 C 110.932 136.105,110.777 136.018,110.587 136.018 C 110.397 136.018,110.242 135.922,110.242 135.804 C 110.242 135.686,110.040 135.525,109.793 135.447 C 109.546 135.368,109.280 135.101,109.201 134.853 C 109.122 134.604,108.967 134.457,108.856 134.526 C 108.745 134.594,108.541 134.440,108.404 134.184 C 108.267 133.927,108.002 133.717,107.817 133.717 C 107.632 133.717,107.480 133.613,107.480 133.487 C 107.480 133.153,106.284 133.218,105.810 133.578 C 104.613 134.487,103.069 135.839,101.713 137.169 C 99.731 139.112,99.144 139.626,99.235 139.338 C 99.276 139.209,99.085 138.643,98.809 138.079 C 98.202 136.834,96.433 132.080,96.433 131.693 C 96.433 131.540,96.329 131.415,96.203 131.415 C 96.076 131.415,95.972 131.250,95.972 131.047 C 95.972 130.845,95.806 130.301,95.604 129.839 C 94.428 127.159,94.131 126.335,94.131 125.749 C 94.131 125.448,94.028 125.201,93.901 125.201 C 93.774 125.201,93.671 125.015,93.671 124.787 C 93.671 124.559,93.547 124.249,93.395 124.097 C 93.243 123.945,93.185 123.820,93.266 123.820 C 93.347 123.820,93.270 123.543,93.094 123.204 C 92.918 122.865,92.826 122.503,92.891 122.399 C 92.955 122.295,92.899 122.209,92.767 122.209 C 92.634 122.209,92.459 121.795,92.378 121.289 C 92.297 120.783,92.152 120.368,92.056 120.368 C 91.959 120.368,91.745 119.909,91.579 119.347 C 91.413 118.786,91.179 118.388,91.058 118.462 C 90.937 118.537,90.909 118.483,90.996 118.342 C 91.084 118.201,91.048 117.874,90.917 117.616 C 90.786 117.357,90.575 116.940,90.449 116.689 C 90.322 116.438,90.219 116.043,90.219 115.812 C 90.219 115.582,90.067 115.192,89.881 114.946 C 89.695 114.700,89.540 114.266,89.536 113.982 C 89.531 113.697,89.425 113.464,89.298 113.464 C 89.171 113.464,89.068 113.279,89.068 113.052 C 89.068 112.826,88.864 112.241,88.615 111.752 C 88.366 111.264,88.217 110.776,88.283 110.668 C 88.350 110.560,88.295 110.472,88.161 110.472 C 88.027 110.472,87.917 110.284,87.917 110.055 C 87.917 109.827,87.765 109.438,87.579 109.192 C 87.393 108.947,87.238 108.563,87.234 108.340 C 87.227 107.932,87.165 107.775,86.460 106.368 C 86.249 105.946,86.076 105.403,86.076 105.160 C 86.076 104.917,85.985 104.718,85.875 104.718 C 85.764 104.718,85.615 104.428,85.544 104.074 C 85.474 103.720,85.132 103.147,84.786 102.800 L 84.156 102.171 79.218 102.196 L 74.280 102.221 73.776 102.836 C 73.499 103.175,73.159 103.763,73.021 104.143 C 72.883 104.522,72.693 105.040,72.599 105.293 C 72.505 105.547,72.389 105.955,72.342 106.201 C 72.295 106.447,72.103 106.955,71.916 107.330 C 71.729 107.704,71.577 108.156,71.577 108.334 C 71.577 108.520,71.464 108.588,71.311 108.494 C 71.165 108.403,71.107 108.429,71.182 108.551 C 71.379 108.870,70.872 110.720,70.629 110.570 C 70.517 110.501,70.426 110.593,70.426 110.775 C 70.426 110.957,70.251 111.507,70.038 111.997 C 69.825 112.487,69.674 113.018,69.703 113.176 C 69.732 113.334,69.647 113.464,69.515 113.464 C 69.383 113.464,69.275 113.665,69.275 113.910 C 69.275 114.156,69.171 114.421,69.045 114.499 C 68.918 114.578,68.815 114.894,68.815 115.203 C 68.815 115.512,68.733 115.765,68.632 115.765 C 68.435 115.765,67.513 118.301,67.607 118.585 C 67.638 118.680,67.564 118.757,67.441 118.757 C 67.318 118.757,67.274 118.902,67.342 119.079 C 67.410 119.256,67.355 119.469,67.219 119.553 C 67.084 119.637,66.974 119.912,66.974 120.165 C 66.974 120.418,66.870 120.562,66.743 120.483 C 66.615 120.404,66.513 120.581,66.513 120.886 C 66.513 121.186,66.361 121.632,66.175 121.878 C 65.989 122.123,65.834 122.551,65.830 122.829 C 65.826 123.106,65.733 123.389,65.622 123.457 C 65.512 123.525,65.342 123.920,65.245 124.334 C 65.148 124.748,65.048 125.138,65.023 125.201 C 64.764 125.860,64.567 126.257,64.452 126.352 C 64.347 126.440,63.701 128.278,63.400 129.344 C 63.382 129.407,63.230 129.770,63.061 130.150 C 62.892 130.529,62.737 130.892,62.715 130.955 C 62.523 131.521,62.302 132.057,62.124 132.390 C 62.006 132.610,61.907 132.973,61.903 133.196 C 61.899 133.419,61.744 133.803,61.558 134.049 C 61.372 134.294,61.220 134.618,61.220 134.768 C 61.220 134.919,61.042 135.443,60.824 135.933 C 60.607 136.423,60.416 136.928,60.400 137.054 C 60.384 137.181,60.251 137.569,60.105 137.917 C 59.959 138.265,59.719 138.835,59.572 139.183 C 59.425 139.531,59.326 139.945,59.352 140.104 C 59.378 140.262,59.291 140.391,59.159 140.391 C 59.026 140.391,58.918 140.598,58.918 140.852 C 58.918 141.105,58.797 141.312,58.650 141.312 C 58.502 141.312,58.444 141.375,58.521 141.452 C 58.650 141.580,58.203 142.910,57.446 144.649 C 57.281 145.029,57.010 145.702,56.843 146.145 C 56.676 146.588,56.473 147.054,56.391 147.181 C 56.134 147.578,56.114 149.084,56.364 149.238 C 56.495 149.319,59.162 149.385,62.291 149.384 C 68.328 149.383,68.713 149.314,68.898 148.195 C 68.928 148.017,69.076 147.645,69.229 147.368 C 69.381 147.092,69.505 146.652,69.505 146.390 C 69.505 146.129,69.609 145.915,69.735 145.915 C 69.862 145.915,69.965 145.711,69.965 145.462 C 69.965 145.054,70.375 143.936,70.914 142.868 C 71.025 142.649,71.116 142.312,71.116 142.120 C 71.116 141.816,72.145 141.772,79.283 141.772 L 87.451 141.772 87.794 142.593 C 87.982 143.045,88.123 143.485,88.106 143.571 C 88.069 143.754,88.279 144.327,88.796 145.455 C 88.999 145.898,89.169 146.420,89.174 146.615 C 89.179 146.811,89.364 147.247,89.586 147.585 C 89.807 147.924,89.988 148.300,89.988 148.422 C 89.988 149.284,90.567 149.367,96.578 149.367 C 100.140 149.367,102.392 149.283,102.311 149.153 C 102.238 149.035,102.295 148.867,102.436 148.780 C 102.847 148.526,102.425 147.000,101.367 144.918 C 101.185 144.560,101.036 144.088,101.036 143.871 C 101.036 143.653,100.913 143.353,100.763 143.203 C 100.614 143.053,100.552 142.870,100.626 142.796 C 100.700 142.722,100.949 142.979,101.178 143.368 C 101.408 143.756,101.769 144.129,101.980 144.196 C 102.192 144.264,102.615 144.548,102.921 144.829 C 103.227 145.110,103.765 145.491,104.117 145.677 C 104.469 145.862,105.013 146.250,105.325 146.540 C 105.637 146.829,106.043 147.066,106.226 147.066 C 106.409 147.066,106.559 147.169,106.559 147.296 C 106.559 147.422,106.669 147.526,106.802 147.526 C 106.936 147.526,107.672 147.837,108.437 148.216 C 109.202 148.596,110.025 148.907,110.265 148.907 C 110.505 148.907,110.702 149.010,110.702 149.137 C 110.702 149.264,110.944 149.367,111.239 149.367 C 111.534 149.367,111.848 149.439,111.935 149.526 C 112.451 150.042,123.471 150.163,123.784 149.656 C 123.882 149.498,124.233 149.347,124.565 149.319 C 124.897 149.292,125.126 149.200,125.073 149.116 C 125.021 149.032,125.272 148.904,125.631 148.832 C 125.990 148.761,126.867 148.435,127.581 148.108 C 128.295 147.782,128.926 147.512,128.985 147.508 C 129.043 147.505,129.418 147.197,129.816 146.824 C 130.215 146.452,130.661 146.215,130.806 146.298 C 130.951 146.381,130.997 146.368,130.909 146.270 C 130.734 146.076,130.936 145.841,131.964 145.047 C 132.329 144.765,132.549 144.534,132.451 144.534 C 132.354 144.534,132.548 144.319,132.883 144.055 C 133.217 143.792,133.439 143.492,133.375 143.389 C 133.311 143.286,133.414 143.142,133.603 143.069 C 133.792 142.997,133.947 142.727,133.947 142.470 C 133.947 142.213,134.048 142.002,134.171 142.002 C 134.471 142.002,135.098 140.764,135.098 140.173 C 135.098 139.913,135.179 139.701,135.278 139.701 C 136.010 139.701,136.550 131.017,135.832 130.778 C 135.681 130.728,135.558 130.567,135.558 130.422 C 135.558 129.866,134.256 127.587,133.432 126.702 C 132.958 126.193,132.570 125.649,132.569 125.493 C 132.567 125.338,132.319 125.148,132.016 125.072 C 131.714 124.996,131.248 124.683,130.982 124.377 C 130.716 124.071,130.342 123.820,130.151 123.820 C 129.960 123.820,129.804 123.743,129.804 123.648 C 129.804 123.496,128.787 122.985,126.202 121.840 C 125.803 121.664,125.357 121.519,125.211 121.519 C 125.064 121.519,124.995 121.437,125.057 121.337 C 125.119 121.236,124.963 121.139,124.710 121.120 C 124.154 121.078,122.181 120.368,121.876 120.100 C 121.755 119.994,121.425 119.908,121.141 119.908 C 120.858 119.908,120.567 119.813,120.496 119.698 C 120.424 119.582,119.953 119.418,119.448 119.333 C 118.943 119.247,118.471 119.083,118.400 118.967 C 118.328 118.852,118.017 118.757,117.708 118.757 C 117.399 118.757,117.146 118.662,117.146 118.545 C 117.146 118.428,116.810 118.221,116.398 118.084 C 115.202 117.687,114.011 116.441,114.127 115.708 C 114.142 115.613,114.051 115.535,113.924 115.535 C 113.797 115.535,113.695 115.250,113.697 114.902 C 113.700 114.437,113.756 114.356,113.908 114.597 C 114.064 114.843,114.135 114.761,114.193 114.269 C 114.281 113.510,115.830 112.543,116.955 112.543 C 117.317 112.543,117.816 112.416,118.064 112.261 C 118.420 112.039,118.575 112.039,118.797 112.261 C 118.953 112.416,119.395 112.544,119.781 112.546 C 120.167 112.548,121.072 112.848,121.792 113.213 C 122.512 113.578,123.159 113.818,123.230 113.747 C 123.302 113.676,123.360 113.731,123.360 113.870 C 123.360 114.009,123.575 114.191,123.838 114.275 C 124.101 114.358,124.260 114.482,124.193 114.549 C 124.125 114.617,124.653 115.125,125.366 115.679 C 127.188 117.094,127.553 117.041,129.558 115.075 C 130.462 114.189,131.149 113.464,131.084 113.464 C 131.019 113.464,131.637 112.776,132.457 111.936 C 133.276 111.096,133.947 110.268,133.947 110.095 C 133.947 109.922,134.051 109.781,134.177 109.781 C 134.304 109.781,134.407 109.471,134.407 109.091 C 134.407 108.711,134.304 108.400,134.177 108.400 C 134.051 108.400,133.947 108.262,133.947 108.092 C 133.947 107.631,131.657 105.409,131.181 105.409 C 131.042 105.409,130.977 105.330,131.036 105.234 C 131.095 105.138,130.739 104.862,130.244 104.621 C 129.749 104.381,129.344 104.097,129.344 103.991 C 129.344 103.884,129.189 103.797,128.999 103.797 C 128.809 103.797,128.654 103.688,128.654 103.554 C 128.654 103.420,128.562 103.366,128.451 103.436 C 128.339 103.505,127.986 103.355,127.666 103.104 C 127.347 102.852,126.932 102.647,126.745 102.647 C 126.558 102.647,126.108 102.492,125.746 102.303 C 125.383 102.114,124.853 101.958,124.568 101.958 C 124.284 101.957,124.051 101.863,124.051 101.749 C 124.051 101.245,114.615 100.788,114.041 101.265 C 113.819 101.448,113.707 101.436,113.619 101.218 C 113.528 100.990,113.496 100.988,113.482 101.208 M237.459 101.628 C 237.351 101.737,235.528 102.089,234.350 102.229 C 234.192 102.248,234.062 102.349,234.062 102.455 C 234.062 102.560,233.854 102.647,233.599 102.647 C 233.344 102.647,232.955 102.740,232.736 102.854 C 232.516 102.967,231.559 103.399,230.610 103.814 C 229.661 104.228,228.849 104.653,228.807 104.758 C 228.765 104.863,228.637 104.948,228.522 104.948 C 228.407 104.948,228.102 105.129,227.843 105.351 C 227.585 105.572,227.341 105.702,227.302 105.639 C 227.263 105.575,226.852 105.914,226.389 106.391 C 225.926 106.868,225.547 107.206,225.547 107.143 C 225.547 106.849,221.415 111.435,221.096 112.083 C 221.002 112.273,220.797 112.635,220.639 112.888 C 220.003 113.909,219.242 115.430,219.286 115.593 C 219.312 115.688,219.229 115.765,219.102 115.765 C 218.976 115.765,218.872 116.041,218.872 116.379 C 218.872 116.717,218.798 116.919,218.708 116.828 C 218.508 116.628,217.724 119.309,217.722 120.196 C 217.722 120.544,217.618 120.829,217.491 120.829 C 217.365 120.829,217.261 121.226,217.261 121.711 C 217.261 122.196,217.192 122.662,217.108 122.746 C 217.023 122.831,216.963 123.392,216.974 123.993 C 216.985 124.594,216.937 125.330,216.867 125.627 L 216.740 126.168 216.188 125.512 C 214.957 124.049,214.877 123.870,215.282 123.465 C 215.485 123.263,215.650 122.949,215.650 122.768 C 215.650 122.588,215.754 122.440,215.880 122.440 C 216.007 122.440,216.110 122.284,216.110 122.094 C 216.110 121.904,216.205 121.749,216.320 121.749 C 216.436 121.749,216.600 121.335,216.686 120.829 C 216.771 120.322,216.916 119.908,217.008 119.908 C 217.100 119.908,217.200 119.423,217.231 118.830 C 217.262 118.236,217.351 117.648,217.429 117.522 C 217.657 117.153,217.688 114.160,217.465 114.023 C 217.353 113.953,217.261 113.541,217.261 113.105 C 217.261 112.669,217.158 112.313,217.031 112.313 C 216.904 112.313,216.801 111.957,216.801 111.521 C 216.801 111.085,216.696 110.664,216.567 110.585 C 216.438 110.505,216.393 110.344,216.466 110.226 C 216.538 110.108,216.488 110.012,216.354 110.012 C 216.220 110.012,216.110 109.798,216.110 109.538 C 216.110 109.277,216.007 109.128,215.880 109.206 C 215.754 109.284,215.650 109.188,215.650 108.991 C 215.650 108.327,211.643 104.147,211.244 104.394 C 211.136 104.460,211.047 104.413,211.047 104.288 C 211.047 104.010,209.918 103.429,208.976 103.222 C 208.594 103.138,208.340 102.974,208.412 102.858 C 208.484 102.742,208.232 102.647,207.852 102.647 C 207.473 102.647,207.098 102.543,207.020 102.417 C 206.776 102.023,181.939 102.109,181.611 102.504 C 181.219 102.976,181.131 148.743,181.521 149.107 C 181.720 149.294,185.501 149.367,194.941 149.367 C 208.469 149.367,209.198 149.324,210.871 148.430 C 211.091 148.312,211.434 148.216,211.633 148.216 C 211.832 148.216,211.931 148.113,211.853 147.986 C 211.774 147.860,211.911 147.756,212.156 147.756 C 212.401 147.756,212.731 147.601,212.888 147.411 C 213.046 147.221,213.318 147.066,213.492 147.066 C 213.666 147.066,213.809 146.988,213.810 146.893 C 213.810 146.798,214.113 146.517,214.484 146.269 C 214.854 146.021,215.107 145.736,215.045 145.636 C 214.983 145.536,215.094 145.455,215.291 145.455 C 215.489 145.455,215.650 145.362,215.650 145.249 C 215.650 145.135,215.907 144.799,216.222 144.501 C 216.536 144.202,216.795 143.777,216.797 143.556 C 216.799 143.334,216.899 143.153,217.018 143.153 C 217.137 143.153,217.534 142.531,217.899 141.771 C 218.264 141.010,218.649 140.466,218.754 140.562 C 218.860 140.658,218.871 140.606,218.780 140.447 C 218.528 140.011,219.430 137.399,219.832 137.399 C 219.937 137.399,220.023 137.585,220.023 137.812 C 220.023 138.038,220.366 138.588,220.786 139.033 C 221.205 139.478,221.517 139.939,221.479 140.059 C 221.441 140.178,221.874 140.780,222.442 141.397 C 223.010 142.013,223.475 142.553,223.475 142.597 C 223.475 142.801,224.873 144.070,226.122 145.001 C 226.882 145.567,227.640 146.159,227.807 146.318 C 227.974 146.476,228.259 146.605,228.440 146.605 C 228.621 146.605,228.769 146.709,228.769 146.835 C 228.769 146.962,228.930 147.066,229.128 147.066 C 229.325 147.066,229.421 147.172,229.341 147.301 C 229.260 147.431,229.280 147.521,229.385 147.501 C 229.780 147.425,231.058 147.820,230.955 147.987 C 230.895 148.083,231.519 148.354,232.339 148.589 C 233.160 148.824,233.832 149.095,233.832 149.192 C 233.832 149.288,234.174 149.367,234.591 149.367 C 235.009 149.367,235.480 149.497,235.639 149.655 C 236.046 150.063,246.088 150.062,247.066 149.654 C 247.445 149.495,248.033 149.344,248.372 149.318 C 248.711 149.291,248.938 149.188,248.877 149.088 C 248.815 148.988,249.004 148.906,249.296 148.905 C 249.588 148.905,250.124 148.749,250.487 148.560 C 250.849 148.371,251.295 148.216,251.478 148.216 C 251.661 148.216,251.754 148.124,251.684 148.011 C 251.615 147.899,251.919 147.739,252.361 147.656 C 252.803 147.573,253.165 147.406,253.165 147.285 C 253.165 147.164,253.295 147.066,253.455 147.066 C 253.614 147.066,254.028 146.802,254.375 146.481 C 254.722 146.159,255.006 145.972,255.006 146.064 C 255.006 146.156,255.217 146.005,255.475 145.728 C 255.733 145.451,256.045 145.224,256.167 145.224 C 256.290 145.224,257.182 144.448,258.150 143.498 C 259.118 142.549,259.998 141.772,260.105 141.772 C 260.212 141.772,260.302 141.591,260.306 141.369 C 260.309 141.148,260.620 140.665,260.996 140.295 C 261.372 139.926,261.680 139.495,261.680 139.336 C 261.680 139.178,261.761 139.014,261.860 138.972 C 261.959 138.930,262.338 138.300,262.703 137.572 C 263.068 136.844,263.450 136.249,263.552 136.249 C 263.654 136.249,263.681 136.104,263.613 135.927 C 263.546 135.750,263.601 135.536,263.736 135.453 C 263.871 135.369,263.982 135.100,263.982 134.854 C 263.982 134.608,264.072 134.407,264.182 134.407 C 264.343 134.407,264.582 133.544,264.765 132.298 C 264.777 132.213,264.865 132.067,264.960 131.972 C 265.055 131.877,265.132 131.408,265.132 130.930 C 265.132 130.453,265.241 129.994,265.374 129.912 C 265.532 129.815,265.602 128.319,265.577 125.644 C 265.555 123.380,265.459 121.575,265.363 121.633 C 265.218 121.723,265.094 121.088,264.859 119.045 C 264.840 118.887,264.739 118.757,264.634 118.757 C 264.528 118.757,264.442 118.395,264.442 117.952 C 264.442 117.509,264.338 117.146,264.212 117.146 C 264.085 117.146,263.982 116.991,263.982 116.801 C 263.982 116.611,263.867 116.456,263.727 116.456 C 263.587 116.456,263.530 116.304,263.602 116.118 C 263.673 115.932,263.632 115.719,263.511 115.644 C 263.390 115.569,263.291 115.301,263.291 115.048 C 263.291 114.794,263.188 114.651,263.061 114.730 C 262.934 114.808,262.831 114.674,262.831 114.432 C 262.831 114.191,262.520 113.564,262.140 113.040 C 261.761 112.516,261.450 111.982,261.450 111.855 C 261.450 111.727,261.369 111.623,261.269 111.623 C 261.170 111.623,260.901 111.304,260.671 110.914 C 260.313 110.310,259.441 109.423,256.009 106.174 C 255.719 105.899,255.253 105.602,254.975 105.514 C 254.697 105.426,254.223 105.107,253.922 104.806 C 253.620 104.504,253.244 104.258,253.085 104.258 C 252.691 104.258,251.558 103.718,251.555 103.530 C 251.554 103.446,251.139 103.308,250.633 103.222 C 250.127 103.137,249.712 102.972,249.712 102.857 C 249.712 102.741,249.511 102.647,249.266 102.647 C 249.020 102.647,248.761 102.553,248.691 102.439 C 248.620 102.325,247.941 102.160,247.181 102.071 C 246.421 101.983,245.741 101.818,245.671 101.703 C 245.533 101.480,237.679 101.408,237.459 101.628 M17.241 102.556 C 16.763 103.132,16.752 148.592,17.230 148.887 C 17.495 149.051,17.495 149.101,17.230 149.206 C 17.057 149.275,17.232 149.339,17.618 149.349 C 18.004 149.359,18.444 149.491,18.596 149.643 C 18.811 149.858,18.872 149.858,18.872 149.641 C 18.872 149.429,21.133 149.360,28.481 149.350 C 39.518 149.334,38.895 149.349,38.895 149.099 C 38.895 148.993,39.180 148.906,39.528 148.904 C 40.630 148.900,41.883 148.626,41.754 148.417 C 41.686 148.307,41.889 148.216,42.205 148.216 C 42.522 148.216,42.845 148.113,42.923 147.986 C 43.001 147.860,43.240 147.754,43.454 147.751 C 43.668 147.748,44.465 147.440,45.224 147.066 C 45.984 146.692,46.697 146.383,46.808 146.380 C 46.920 146.377,47.181 146.194,47.387 145.972 C 47.772 145.559,48.412 145.113,49.022 144.832 C 49.212 144.745,49.556 144.435,49.787 144.143 C 50.017 143.852,50.290 143.613,50.393 143.613 C 50.599 143.613,52.931 141.312,52.940 141.100 C 52.943 141.027,53.305 140.567,53.745 140.078 C 54.185 139.589,54.545 139.046,54.545 138.870 C 54.545 138.694,54.649 138.550,54.776 138.550 C 54.902 138.550,55.006 138.403,55.006 138.224 C 55.006 138.045,55.083 137.863,55.178 137.821 C 55.394 137.726,56.157 136.292,56.157 135.983 C 56.157 135.858,56.312 135.600,56.502 135.410 C 56.692 135.220,56.847 134.871,56.847 134.635 C 56.847 134.398,56.951 134.140,57.077 134.062 C 57.204 133.984,57.307 133.667,57.307 133.358 C 57.307 133.049,57.394 132.796,57.499 132.796 C 57.605 132.796,57.700 132.667,57.712 132.509 C 57.797 131.341,58.093 129.648,58.245 129.453 C 58.493 129.135,58.487 122.209,58.239 122.209 C 58.132 122.209,57.992 121.769,57.929 121.231 C 57.732 119.555,57.621 119.087,57.234 118.312 C 57.028 117.898,56.793 117.207,56.712 116.775 C 56.631 116.344,56.473 115.934,56.361 115.864 C 56.248 115.795,56.157 115.531,56.157 115.278 C 56.157 115.025,56.068 114.872,55.960 114.939 C 55.794 115.041,55.190 114.110,55.137 113.671 C 55.104 113.396,52.595 110.119,52.191 109.823 C 51.963 109.656,51.836 109.423,51.908 109.305 C 51.981 109.187,51.940 109.091,51.817 109.091 C 51.574 109.091,50.737 108.432,49.684 107.414 C 49.320 107.062,49.022 106.834,49.022 106.908 C 49.022 106.982,48.361 106.572,47.554 105.996 C 46.747 105.420,45.912 104.948,45.699 104.948 C 45.487 104.948,45.369 104.856,45.439 104.743 C 45.509 104.631,45.208 104.471,44.772 104.389 C 43.758 104.199,42.765 103.687,42.984 103.468 C 43.077 103.375,43.049 103.325,42.923 103.357 C 42.485 103.469,40.506 103.054,40.506 102.851 C 40.506 102.739,40.034 102.647,39.457 102.647 C 38.880 102.647,38.465 102.554,38.535 102.440 C 38.806 102.002,17.605 102.118,17.241 102.556 M137.227 102.768 L 136.709 103.321 136.716 125.941 C 136.722 144.386,136.780 148.636,137.029 148.964 C 137.305 149.327,137.854 149.367,142.559 149.367 C 146.672 149.367,147.749 149.428,147.621 149.655 C 147.491 149.885,147.520 149.885,147.768 149.655 C 147.939 149.497,148.217 149.367,148.387 149.367 C 149.758 149.367,149.789 149.137,149.810 138.953 L 149.827 130.265 157.307 130.265 L 164.787 130.265 164.787 139.558 C 164.787 147.330,164.841 148.895,165.116 149.123 C 165.679 149.590,176.501 149.460,177.031 148.980 C 177.627 148.441,177.681 103.546,177.087 102.698 C 176.663 102.092,165.650 101.876,165.063 102.463 C 164.859 102.667,164.787 104.825,164.787 110.748 L 164.787 118.757 157.307 118.757 L 149.827 118.757 149.827 111.242 L 149.827 103.726 149.240 102.956 L 148.653 102.186 143.199 102.200 C 137.745 102.215,137.744 102.215,137.227 102.768 M280.892 102.363 C 280.511 102.637,279.862 103.752,279.862 104.135 C 279.862 104.329,279.758 104.488,279.632 104.488 C 279.505 104.488,279.398 104.721,279.393 105.006 C 279.389 105.291,279.237 105.783,279.056 106.099 C 278.875 106.415,278.724 106.913,278.719 107.206 C 278.715 107.500,278.608 107.674,278.481 107.595 C 278.354 107.517,278.251 107.666,278.251 107.927 C 278.251 108.187,278.169 108.400,278.070 108.400 C 277.970 108.400,277.871 108.628,277.850 108.907 C 277.801 109.569,276.868 112.057,276.610 112.216 C 276.500 112.284,276.410 112.538,276.410 112.780 C 276.410 113.022,276.219 113.559,275.986 113.975 C 275.753 114.390,275.489 115.118,275.400 115.593 C 275.311 116.067,275.122 116.456,274.980 116.456 C 274.838 116.456,274.791 116.525,274.876 116.610 C 274.961 116.695,274.890 116.980,274.719 117.243 C 274.548 117.506,274.336 118.110,274.248 118.585 C 274.159 119.059,273.977 119.448,273.843 119.448 C 273.709 119.448,273.657 119.600,273.729 119.787 C 273.800 119.973,273.699 120.216,273.503 120.325 C 273.307 120.435,273.165 120.567,273.188 120.619 C 273.288 120.845,272.886 122.456,272.701 122.571 C 272.589 122.640,272.497 122.889,272.497 123.124 C 272.497 123.360,272.389 123.588,272.257 123.632 C 272.125 123.676,271.986 124.005,271.948 124.364 C 271.909 124.722,271.784 125.083,271.670 125.166 C 271.555 125.249,271.425 125.524,271.381 125.777 C 271.337 126.030,271.198 126.300,271.074 126.378 C 270.949 126.455,270.857 126.585,270.871 126.667 C 270.906 126.890,270.644 128.018,270.435 128.539 C 270.334 128.792,270.067 129.465,269.844 130.035 C 269.620 130.604,269.245 131.491,269.010 132.006 C 268.776 132.521,268.585 133.074,268.585 133.236 C 268.585 133.398,268.432 133.806,268.244 134.142 C 268.057 134.478,267.711 135.347,267.475 136.074 C 267.239 136.801,266.962 137.319,266.858 137.225 C 266.754 137.131,266.731 137.162,266.806 137.294 C 266.881 137.427,266.742 137.982,266.498 138.528 C 266.253 139.074,266.053 139.723,266.053 139.970 C 266.053 140.216,265.971 140.368,265.871 140.306 C 265.770 140.244,265.672 140.410,265.652 140.674 C 265.632 140.939,265.523 141.216,265.410 141.291 C 265.296 141.366,265.139 141.833,265.061 142.329 C 264.983 142.825,264.806 143.300,264.669 143.385 C 264.531 143.470,264.402 143.763,264.381 144.037 C 264.361 144.310,264.258 144.534,264.153 144.534 C 264.047 144.534,263.983 144.663,264.009 144.822 C 264.084 145.278,263.722 146.375,263.496 146.375 C 263.383 146.375,263.291 146.640,263.291 146.964 C 263.291 147.298,263.192 147.491,263.061 147.411 C 262.922 147.325,262.831 147.630,262.831 148.178 C 262.831 149.385,262.631 149.347,269.154 149.379 C 275.196 149.410,275.489 149.357,275.489 148.233 C 275.489 147.971,275.581 147.756,275.692 147.756 C 275.804 147.756,275.950 147.547,276.017 147.290 C 276.084 147.034,276.153 146.777,276.169 146.719 C 276.186 146.661,276.346 146.262,276.526 145.833 C 276.705 145.404,276.787 144.988,276.707 144.908 C 276.628 144.829,276.684 144.764,276.832 144.764 C 276.979 144.764,277.100 144.557,277.100 144.304 C 277.100 144.051,277.221 143.843,277.369 143.843 C 277.516 143.843,277.582 143.788,277.514 143.720 C 277.446 143.652,277.522 143.212,277.684 142.742 L 277.978 141.887 286.170 141.827 L 294.361 141.766 294.361 142.345 C 294.361 142.663,294.452 142.923,294.562 142.923 C 294.672 142.923,294.832 143.444,294.916 144.082 C 295.002 144.731,295.167 145.180,295.291 145.104 C 295.413 145.029,295.512 145.180,295.512 145.441 C 295.512 145.702,295.616 145.915,295.742 145.915 C 295.869 145.915,295.972 146.213,295.972 146.577 C 295.972 146.941,296.128 147.368,296.318 147.526 C 296.507 147.683,296.663 148.014,296.663 148.261 C 296.663 149.378,296.576 149.369,308.385 149.372 C 316.758 149.373,319.448 149.440,319.448 149.647 C 319.448 149.855,319.513 149.854,319.724 149.643 C 319.876 149.491,320.196 149.367,320.436 149.367 C 320.678 149.367,320.925 149.163,320.992 148.907 C 321.058 148.654,321.204 148.446,321.316 148.446 C 321.427 148.446,321.507 148.369,321.492 148.274 C 321.477 148.179,321.477 144.861,321.492 140.901 L 321.519 133.700 323.734 133.766 L 325.949 133.832 326.710 135.318 C 327.129 136.135,327.421 136.886,327.359 136.986 C 327.296 137.087,327.355 137.169,327.489 137.169 C 327.623 137.169,327.733 137.331,327.733 137.528 C 327.733 137.725,327.837 137.823,327.963 137.745 C 328.090 137.666,328.193 137.809,328.193 138.063 C 328.193 138.316,328.299 138.588,328.427 138.667 C 328.556 138.747,328.613 138.890,328.555 138.984 C 328.496 139.079,328.650 139.302,328.896 139.480 C 329.142 139.657,329.344 139.931,329.344 140.089 C 329.344 140.517,330.092 142.002,330.307 142.002 C 330.410 142.002,330.495 142.189,330.495 142.417 C 330.495 142.644,330.589 142.929,330.704 143.049 C 331.108 143.473,333.057 147.296,332.870 147.299 C 332.766 147.301,332.786 147.379,332.913 147.472 C 333.041 147.565,333.404 148.029,333.719 148.502 C 334.097 149.071,334.468 149.364,334.810 149.366 C 335.095 149.366,335.328 149.471,335.328 149.597 C 335.328 149.724,335.438 149.827,335.572 149.827 C 335.706 149.827,335.751 149.724,335.673 149.597 C 335.580 149.446,337.320 149.367,340.723 149.367 C 344.408 149.367,345.915 149.442,345.915 149.625 C 345.915 149.807,346.001 149.812,346.205 149.643 C 346.397 149.483,350.040 149.393,356.951 149.377 C 362.701 149.363,367.515 149.265,367.650 149.159 C 367.784 149.053,368.360 148.907,368.930 148.833 C 370.277 148.660,370.716 148.539,372.037 147.980 C 372.290 147.873,372.756 147.713,373.072 147.624 C 373.389 147.536,373.709 147.369,373.784 147.253 C 373.858 147.137,374.139 147.026,374.407 147.006 C 374.675 146.986,374.847 146.922,374.790 146.865 C 374.732 146.808,375.104 146.574,375.615 146.345 C 376.125 146.116,376.702 145.770,376.896 145.577 C 377.090 145.383,377.349 145.224,377.472 145.224 C 377.595 145.224,377.975 144.965,378.316 144.649 C 378.657 144.333,379.023 144.074,379.128 144.074 C 379.233 144.074,379.475 143.918,379.665 143.728 C 379.855 143.539,379.967 143.383,379.915 143.383 C 379.863 143.383,380.503 142.692,381.337 141.848 C 382.171 141.004,382.829 140.230,382.799 140.129 C 382.768 140.028,382.952 139.833,383.208 139.696 C 383.463 139.559,383.614 139.353,383.542 139.237 C 383.471 139.122,383.615 138.825,383.862 138.578 C 384.109 138.330,384.251 138.068,384.177 137.994 C 384.103 137.920,384.170 137.860,384.325 137.860 C 384.480 137.860,384.553 137.772,384.486 137.664 C 384.420 137.557,384.565 137.255,384.809 136.993 C 385.052 136.732,385.319 136.249,385.402 135.921 C 385.484 135.592,385.644 135.267,385.756 135.197 C 385.869 135.128,385.961 134.818,385.961 134.509 C 385.961 134.200,386.064 133.947,386.191 133.947 C 386.318 133.947,386.421 133.630,386.421 133.243 C 386.421 132.773,386.509 132.593,386.685 132.702 C 386.870 132.817,386.903 132.684,386.796 132.255 C 386.711 131.920,386.730 131.646,386.836 131.646 C 386.942 131.646,387.054 131.105,387.084 130.444 C 387.114 129.784,387.230 129.133,387.341 128.999 C 387.859 128.375,387.212 119.465,386.633 119.256 C 386.517 119.214,386.421 118.929,386.421 118.623 C 386.421 118.317,386.329 118.067,386.217 118.067 C 386.042 118.067,385.808 117.278,385.689 116.283 C 385.670 116.125,385.582 115.995,385.494 115.995 C 385.406 115.995,385.012 115.342,384.618 114.542 C 384.225 113.743,383.719 112.871,383.494 112.604 C 382.466 111.384,382.037 110.808,382.078 110.702 C 382.130 110.565,380.502 108.861,380.319 108.861 C 380.249 108.861,379.829 108.498,379.386 108.055 C 378.943 107.612,378.489 107.250,378.377 107.250 C 378.266 107.250,378.140 107.172,378.097 107.077 C 377.982 106.818,375.909 105.409,375.643 105.409 C 375.516 105.409,375.376 105.299,375.331 105.166 C 375.287 105.032,375.097 104.893,374.910 104.856 C 374.722 104.819,374.277 104.669,373.921 104.523 C 373.564 104.377,373.118 104.258,372.929 104.258 C 372.740 104.258,372.649 104.154,372.727 104.028 C 372.809 103.896,372.602 103.797,372.242 103.797 C 371.897 103.797,371.692 103.720,371.786 103.626 C 371.880 103.532,371.354 103.319,370.616 103.153 C 369.879 102.987,368.809 102.736,368.239 102.594 C 366.438 102.147,346.898 102.091,346.457 102.532 C 345.963 103.026,345.956 103.098,345.898 108.631 C 345.869 111.352,345.803 113.294,345.750 112.946 C 345.697 112.598,345.546 112.313,345.415 112.313 C 345.283 112.313,345.230 112.171,345.296 111.998 C 345.418 111.679,344.777 110.451,344.172 109.847 C 343.991 109.666,343.843 109.370,343.843 109.190 C 343.843 109.009,343.747 108.861,343.629 108.861 C 343.511 108.861,343.345 108.643,343.261 108.377 C 343.085 107.823,340.931 105.636,340.744 105.823 C 340.677 105.890,340.621 105.825,340.621 105.677 C 340.621 105.529,340.466 105.409,340.276 105.409 C 340.086 105.409,339.931 105.303,339.931 105.175 C 339.931 105.046,339.543 104.761,339.068 104.542 C 338.593 104.322,338.153 104.083,338.090 104.010 C 337.680 103.539,335.298 102.647,334.449 102.647 C 334.173 102.647,333.947 102.547,333.947 102.424 C 333.947 102.047,309.530 102.125,309.035 102.504 C 308.658 102.791,308.629 104.166,308.572 124.190 C 308.537 136.367,308.426 145.347,308.314 145.052 C 308.205 144.767,308.025 144.534,307.913 144.534 C 307.801 144.534,307.706 144.301,307.702 144.016 C 307.697 143.731,307.546 143.239,307.365 142.923 C 307.184 142.606,307.032 142.114,307.028 141.830 C 307.023 141.545,306.936 141.312,306.835 141.312 C 306.733 141.312,306.464 140.768,306.236 140.104 C 306.008 139.439,305.615 138.436,305.363 137.874 C 305.111 137.312,304.850 136.510,304.782 136.090 C 304.714 135.671,304.568 135.328,304.458 135.328 C 304.348 135.328,304.258 135.126,304.258 134.880 C 304.258 134.633,303.999 133.945,303.682 133.350 C 303.366 132.754,303.107 132.082,303.107 131.855 C 303.107 131.628,303.001 131.377,302.871 131.297 C 302.741 131.216,302.654 131.029,302.677 130.880 C 302.729 130.547,302.509 129.941,301.940 128.860 C 301.701 128.404,301.572 127.964,301.654 127.882 C 301.736 127.800,301.682 127.733,301.534 127.733 C 301.387 127.733,301.266 127.468,301.266 127.144 C 301.266 126.820,301.175 126.611,301.065 126.679 C 300.954 126.748,300.796 126.292,300.713 125.667 C 300.630 125.041,300.461 124.468,300.339 124.392 C 300.216 124.316,300.115 124.053,300.115 123.807 C 300.115 123.561,300.012 123.360,299.885 123.360 C 299.758 123.360,299.655 123.153,299.655 122.900 C 299.655 122.647,299.539 122.440,299.398 122.440 C 299.254 122.440,299.194 122.237,299.261 121.979 C 299.327 121.726,299.288 121.519,299.173 121.519 C 299.058 121.519,298.964 121.260,298.964 120.944 C 298.964 120.627,298.861 120.368,298.734 120.368 C 298.608 120.368,298.504 120.229,298.504 120.058 C 298.504 119.764,298.058 118.684,297.552 117.755 C 297.404 117.484,297.402 117.379,297.546 117.468 C 297.671 117.545,297.523 117.091,297.218 116.458 C 296.913 115.825,296.663 115.151,296.663 114.961 C 296.663 114.770,296.559 114.614,296.433 114.614 C 296.306 114.614,296.203 114.411,296.203 114.162 C 296.203 113.719,295.533 112.081,295.259 111.853 C 295.183 111.789,295.051 111.427,294.967 111.047 C 294.745 110.048,294.721 109.977,294.308 109.091 C 294.102 108.648,293.745 107.716,293.514 107.020 C 293.284 106.323,293.034 105.702,292.958 105.639 C 292.829 105.530,292.452 104.218,292.510 104.077 C 292.524 104.041,292.403 103.877,292.241 103.712 C 292.078 103.548,291.739 103.137,291.487 102.800 L 291.030 102.186 286.079 102.190 C 283.356 102.192,281.022 102.270,280.892 102.363 M202.482 112.486 C 202.729 112.770,203.048 113.003,203.192 113.003 C 203.335 113.003,203.452 113.082,203.452 113.178 C 203.452 113.275,203.685 113.615,203.970 113.935 C 204.573 114.612,204.610 114.743,204.616 116.181 C 204.629 119.586,203.358 120.395,197.756 120.544 L 193.786 120.649 193.786 116.229 L 193.786 111.808 197.910 111.888 C 201.849 111.964,202.053 111.991,202.482 112.486 M328.750 112.742 C 328.817 112.852,329.219 112.998,329.643 113.066 C 330.410 113.191,332.336 114.779,332.336 115.287 C 332.336 115.423,332.457 115.535,332.605 115.535 C 332.752 115.535,332.808 115.600,332.729 115.679 C 332.649 115.759,332.710 116.147,332.863 116.542 C 333.175 117.348,333.185 117.705,332.939 119.275 C 332.845 119.876,332.671 120.368,332.552 120.368 C 332.433 120.368,332.336 120.540,332.336 120.750 C 332.336 122.363,329.603 123.360,325.182 123.360 L 321.519 123.360 321.519 117.952 L 321.519 112.543 325.073 112.543 C 327.027 112.543,328.682 112.633,328.750 112.742 M242.002 113.464 C 242.081 113.590,242.604 113.694,243.167 113.694 C 243.729 113.694,244.189 113.797,244.189 113.924 C 244.189 114.051,244.402 114.154,244.662 114.154 C 245.311 114.154,246.991 114.945,247.816 115.639 C 248.191 115.954,248.564 116.147,248.645 116.066 C 248.726 115.985,248.792 116.055,248.792 116.221 C 248.792 116.388,249.164 116.886,249.619 117.328 C 250.652 118.331,251.784 120.144,251.784 120.796 C 251.784 121.067,251.879 121.289,251.996 121.289 C 252.191 121.289,252.326 121.714,252.638 123.321 C 252.886 124.596,252.964 127.733,252.748 127.733 C 252.627 127.733,252.456 128.406,252.368 129.229 C 252.279 130.052,252.112 130.725,251.995 130.725 C 251.879 130.725,251.784 130.879,251.784 131.067 C 251.784 131.512,250.427 133.717,250.153 133.717 C 250.037 133.717,249.942 133.872,249.942 134.062 C 249.942 134.252,249.846 134.407,249.728 134.407 C 249.610 134.407,249.447 134.614,249.367 134.868 C 249.287 135.121,249.078 135.328,248.903 135.328 C 248.728 135.328,248.479 135.509,248.350 135.731 C 248.221 135.952,248.112 136.036,248.108 135.917 C 248.104 135.798,247.972 135.870,247.814 136.077 C 247.655 136.284,247.371 136.485,247.181 136.524 C 246.992 136.562,246.733 136.716,246.606 136.866 C 246.479 137.015,246.168 137.170,245.915 137.211 C 245.662 137.251,245.396 137.364,245.323 137.461 C 244.750 138.234,237.284 138.144,237.284 137.364 C 237.284 137.257,237.137 137.169,236.958 137.169 C 236.547 137.169,235.216 136.423,235.214 136.191 C 235.214 136.096,235.072 136.018,234.899 136.018 C 234.450 136.018,232.419 133.957,231.881 132.954 C 231.631 132.488,231.346 132.106,231.248 132.106 C 231.150 132.106,231.070 131.899,231.070 131.646 C 231.070 131.392,230.973 131.185,230.854 131.185 C 230.683 131.185,230.449 130.260,230.272 128.884 C 230.264 128.820,230.178 128.643,230.080 128.489 C 229.857 128.139,229.839 123.677,230.059 123.321 C 230.148 123.177,230.258 122.842,230.303 122.577 C 230.571 120.991,230.683 120.598,230.866 120.598 C 230.978 120.598,231.070 120.443,231.070 120.253 C 231.070 120.063,231.180 119.908,231.314 119.908 C 231.448 119.908,231.493 119.804,231.414 119.676 C 231.257 119.422,232.031 118.230,232.847 117.468 C 233.131 117.203,233.297 116.918,233.215 116.836 C 233.132 116.753,233.234 116.686,233.440 116.686 C 233.647 116.686,233.929 116.474,234.068 116.215 C 234.207 115.955,234.547 115.645,234.824 115.525 C 235.417 115.267,236.200 114.790,236.364 114.586 C 236.495 114.422,238.002 114.044,238.262 114.110 C 238.357 114.134,238.435 114.051,238.435 113.924 C 238.435 113.797,238.947 113.694,239.572 113.694 C 240.198 113.694,240.773 113.590,240.852 113.464 C 240.930 113.337,241.189 113.234,241.427 113.234 C 241.665 113.234,241.924 113.337,242.002 113.464 M35.673 114.137 C 37.607 114.410,40.506 115.529,40.506 116.002 C 40.506 116.125,40.638 116.226,40.800 116.226 C 41.315 116.226,44.419 119.883,44.419 120.490 C 44.419 120.704,45.170 122.299,45.337 122.440 C 45.612 122.671,45.733 126.616,45.500 127.733 C 45.407 128.176,45.270 128.838,45.195 129.205 C 45.002 130.142,43.821 132.582,43.644 132.405 C 43.564 132.325,43.498 132.434,43.498 132.648 C 43.498 133.036,41.168 135.417,40.735 135.472 C 40.609 135.488,40.397 135.514,40.263 135.529 C 40.129 135.545,40.083 135.662,40.161 135.788 C 40.287 135.992,40.128 136.060,39.669 135.999 C 39.588 135.988,39.459 136.075,39.381 136.191 C 38.947 136.846,35.708 137.608,32.739 137.754 L 29.689 137.904 29.689 125.782 L 29.689 113.661 31.703 113.761 C 32.811 113.816,34.597 113.985,35.673 114.137 M363.176 113.913 C 363.176 114.034,363.409 114.115,363.694 114.094 C 364.523 114.032,366.858 114.401,366.858 114.594 C 366.858 114.691,367.422 114.961,368.111 115.196 C 368.800 115.430,369.312 115.706,369.248 115.808 C 369.185 115.911,369.250 115.995,369.393 115.995 C 369.536 115.995,369.788 116.125,369.954 116.283 C 370.119 116.441,370.469 116.719,370.730 116.900 C 370.992 117.082,371.154 117.315,371.090 117.418 C 371.026 117.522,371.118 117.606,371.294 117.606 C 372.339 117.606,375.006 123.403,374.530 124.642 C 374.471 124.798,374.533 124.993,374.668 125.077 C 374.960 125.257,374.999 126.732,374.716 126.907 C 374.607 126.975,374.461 127.666,374.390 128.444 C 374.320 129.221,374.150 129.970,374.013 130.107 C 373.875 130.244,373.763 130.543,373.763 130.771 C 373.763 130.999,373.668 131.185,373.551 131.185 C 373.435 131.185,373.271 131.497,373.187 131.878 C 373.103 132.259,372.940 132.511,372.824 132.440 C 372.707 132.368,372.612 132.430,372.612 132.578 C 372.612 132.968,370.333 135.170,369.390 135.690 C 368.947 135.934,368.533 136.194,368.470 136.267 C 368.406 136.341,367.785 136.587,367.089 136.814 C 366.392 137.041,365.599 137.311,365.326 137.414 C 365.053 137.517,363.473 137.672,361.816 137.760 L 358.803 137.920 358.803 125.807 L 358.803 113.694 360.990 113.694 C 362.222 113.694,363.176 113.790,363.176 113.913 M286.551 119.678 C 286.669 119.678,286.766 119.840,286.766 120.037 C 286.766 120.479,287.462 122.699,287.700 123.015 C 287.795 123.142,287.938 123.659,288.017 124.166 C 288.097 124.672,288.262 125.121,288.385 125.163 C 288.507 125.205,288.608 125.469,288.608 125.750 C 288.608 126.030,288.703 126.358,288.819 126.479 C 288.935 126.599,289.082 127.039,289.146 127.457 C 289.210 127.875,289.363 128.341,289.488 128.493 C 289.612 128.645,289.749 129.028,289.793 129.344 C 289.837 129.661,289.940 129.971,290.022 130.035 C 290.104 130.098,290.208 130.409,290.252 130.725 L 290.334 131.300 285.986 131.363 C 282.491 131.414,281.684 131.368,281.871 131.133 C 281.999 130.972,282.075 130.659,282.039 130.438 C 282.004 130.217,282.069 129.978,282.184 129.907 C 282.299 129.836,282.394 129.518,282.394 129.202 C 282.394 128.877,282.494 128.688,282.624 128.769 C 282.750 128.847,282.854 128.695,282.854 128.431 C 282.854 128.168,283.051 127.392,283.291 126.707 C 283.532 126.023,283.661 125.387,283.579 125.295 C 283.497 125.203,283.559 125.202,283.717 125.293 C 283.913 125.406,284.005 125.283,284.005 124.908 C 284.005 124.605,284.082 124.280,284.177 124.185 C 284.272 124.090,284.360 123.943,284.372 123.859 C 284.555 122.612,284.794 121.749,284.955 121.749 C 285.065 121.749,285.155 121.438,285.155 121.059 C 285.155 120.679,285.265 120.368,285.399 120.368 C 285.533 120.368,285.583 120.272,285.510 120.154 C 285.437 120.036,285.561 119.553,285.784 119.080 L 286.191 118.220 286.263 118.949 C 286.303 119.350,286.432 119.678,286.551 119.678 M79.632 118.949 C 79.632 119.181,79.708 119.447,79.801 119.541 C 79.895 119.634,79.981 119.832,79.993 119.982 C 80.047 120.652,80.396 121.749,80.555 121.749 C 80.651 121.749,80.799 122.211,80.884 122.775 C 80.969 123.339,81.210 124.141,81.420 124.558 C 81.630 124.975,81.823 125.454,81.850 125.622 C 81.876 125.790,81.972 126.101,82.063 126.313 C 82.237 126.720,82.294 126.943,82.528 128.133 C 82.609 128.544,82.757 128.828,82.858 128.766 C 82.959 128.704,83.112 129.171,83.199 129.804 C 83.286 130.437,83.457 130.955,83.579 130.955 C 83.702 130.955,83.738 131.059,83.659 131.185 C 83.393 131.617,74.953 131.485,75.119 131.051 C 75.196 130.851,75.259 130.483,75.259 130.232 C 75.259 129.982,75.362 129.841,75.489 129.919 C 75.624 130.003,75.719 129.764,75.719 129.344 C 75.719 128.860,75.806 128.680,75.985 128.791 C 76.153 128.895,76.188 128.854,76.080 128.679 C 75.986 128.527,76.000 128.278,76.111 128.126 C 76.221 127.973,76.344 127.537,76.383 127.158 C 76.421 126.778,76.547 126.433,76.662 126.390 C 76.776 126.348,76.870 126.063,76.870 125.758 C 76.870 125.452,76.974 125.201,77.100 125.201 C 77.227 125.201,77.315 125.124,77.296 125.029 C 77.216 124.616,77.638 122.900,77.820 122.900 C 77.930 122.900,78.021 122.647,78.021 122.338 C 78.021 122.029,78.113 121.720,78.225 121.650 C 78.337 121.581,78.499 121.135,78.584 120.658 C 78.870 119.065,79.632 117.822,79.632 118.949 M345.895 133.429 C 345.884 139.600,345.792 144.374,345.690 144.037 C 345.589 143.701,345.188 142.963,344.799 142.398 C 344.410 141.833,344.151 141.311,344.224 141.238 C 344.297 141.165,344.137 140.828,343.870 140.487 C 343.602 140.147,343.383 139.676,343.383 139.440 C 343.383 139.204,343.302 139.010,343.203 139.010 C 343.104 139.010,342.664 138.311,342.225 137.457 C 341.786 136.602,341.368 135.852,341.295 135.788 C 341.105 135.623,340.772 134.783,340.815 134.580 C 340.835 134.485,340.748 134.407,340.621 134.407 C 340.495 134.407,340.391 134.294,340.391 134.155 C 340.391 134.017,340.173 133.596,339.906 133.221 C 339.639 132.846,339.480 132.480,339.553 132.407 C 339.626 132.334,339.482 132.015,339.233 131.699 L 338.780 131.123 339.413 130.585 C 339.761 130.288,340.227 129.888,340.449 129.695 C 340.670 129.502,340.913 129.344,340.988 129.344 C 341.063 129.344,341.388 129.137,341.709 128.884 C 342.031 128.631,342.223 128.423,342.137 128.423 C 342.050 128.423,342.241 128.180,342.562 127.883 C 342.883 127.585,343.088 127.284,343.017 127.213 C 342.946 127.143,343.103 127.016,343.366 126.933 C 343.632 126.848,343.843 126.585,343.843 126.337 C 343.843 126.092,343.945 125.892,344.069 125.892 C 344.193 125.892,344.360 125.633,344.439 125.316 C 344.519 125.000,344.676 124.741,344.789 124.741 C 344.902 124.741,344.994 124.534,344.994 124.281 C 344.994 124.028,345.098 123.820,345.224 123.820 C 345.351 123.820,345.455 123.622,345.455 123.379 C 345.455 122.907,345.675 122.209,345.824 122.209 C 345.874 122.209,345.906 127.258,345.895 133.429 M202.071 129.574 C 202.071 129.701,202.437 129.804,202.884 129.804 C 203.394 129.804,203.746 129.933,203.829 130.150 C 203.902 130.339,204.102 130.495,204.273 130.495 C 204.756 130.495,205.754 131.696,205.754 132.276 C 205.754 132.562,205.857 132.796,205.984 132.796 C 206.110 132.796,206.214 133.010,206.214 133.270 C 206.214 133.531,206.297 133.693,206.398 133.630 C 206.499 133.568,206.551 133.898,206.514 134.365 C 206.397 135.816,206.161 136.817,205.895 136.988 C 205.754 137.078,205.639 137.247,205.639 137.364 C 205.639 137.872,203.609 139.471,202.963 139.471 C 202.599 139.471,202.301 139.562,202.301 139.673 C 202.301 139.785,200.386 139.894,198.044 139.915 L 193.786 139.955 193.786 134.649 L 193.786 129.344 197.929 129.344 C 200.537 129.344,202.071 129.429,202.071 129.574 " stroke="none" fill="#bc44f3" fill-rule="evenodd"></path><path id="path1" d="M17.066 76.928 C 17.085 81.010,17.144 84.059,17.197 83.703 C 17.325 82.855,17.763 83.025,18.017 84.020 C 18.127 84.455,18.313 84.909,18.430 85.029 C 18.547 85.149,18.642 85.434,18.642 85.662 C 18.642 85.890,18.737 86.076,18.852 86.076 C 18.967 86.076,19.132 86.490,19.217 86.997 C 19.303 87.503,19.467 87.917,19.583 87.917 C 19.698 87.917,19.793 88.118,19.793 88.364 C 19.793 88.610,19.885 88.867,19.997 88.937 C 20.109 89.006,20.269 89.426,20.353 89.871 C 20.436 90.315,20.603 90.679,20.724 90.679 C 20.845 90.679,20.944 90.938,20.944 91.254 C 20.944 91.571,21.046 91.830,21.171 91.830 C 21.296 91.830,21.465 92.244,21.546 92.750 C 21.627 93.257,21.783 93.671,21.894 93.671 C 22.004 93.671,22.094 93.869,22.094 94.112 C 22.094 94.355,22.193 94.588,22.314 94.630 C 22.788 94.796,22.870 96.611,22.408 96.729 C 22.172 96.790,23.196 96.852,24.684 96.866 L 27.388 96.893 27.388 90.457 C 27.388 84.811,27.338 83.913,26.985 83.151 C 26.327 81.732,17.526 69.505,17.163 69.505 C 17.090 69.505,17.047 72.845,17.066 76.928 M53.032 70.906 C 51.277 72.710,51.456 72.506,49.517 74.914 C 48.599 76.053,47.719 77.143,47.561 77.336 C 44.912 80.570,44.620 81.256,44.699 84.057 L 44.764 86.402 45.339 85.809 C 45.656 85.483,46.026 85.028,46.162 84.797 C 46.368 84.446,46.458 84.611,46.711 85.802 C 46.877 86.585,47.103 87.227,47.212 87.227 C 47.321 87.227,47.411 87.370,47.411 87.546 C 47.411 87.721,47.566 88.161,47.755 88.524 C 47.944 88.886,48.099 89.358,48.100 89.572 C 48.101 89.786,48.205 90.025,48.331 90.104 C 48.458 90.182,48.562 90.447,48.562 90.693 C 48.562 90.938,48.656 91.139,48.771 91.139 C 48.887 91.139,49.051 91.554,49.137 92.060 C 49.222 92.566,49.387 92.980,49.502 92.980 C 49.618 92.980,49.712 93.124,49.712 93.299 C 49.712 93.475,49.867 93.915,50.056 94.277 C 50.245 94.640,50.401 95.112,50.401 95.326 C 50.402 95.540,50.506 95.779,50.633 95.857 C 51.003 96.086,50.898 96.620,50.460 96.734 C 50.239 96.792,51.171 96.852,52.532 96.866 L 55.006 96.893 55.006 83.199 C 55.006 67.690,55.169 68.709,53.032 70.906 M60.069 87.457 C 60.069 87.583,59.856 87.687,59.595 87.687 C 59.335 87.687,59.185 87.791,59.264 87.917 C 59.342 88.044,59.209 88.147,58.968 88.147 C 58.495 88.147,57.768 88.821,57.768 89.259 C 57.768 89.407,57.664 89.528,57.537 89.528 C 57.411 89.528,57.307 89.735,57.307 89.988 C 57.307 90.242,57.220 90.449,57.113 90.449 C 57.007 90.449,56.920 91.174,56.920 92.060 C 56.920 92.946,57.007 93.671,57.113 93.671 C 57.220 93.671,57.307 93.878,57.307 94.131 C 57.307 94.384,57.411 94.591,57.537 94.591 C 57.664 94.591,57.768 94.731,57.768 94.901 C 57.768 95.323,58.519 95.972,59.008 95.972 C 59.227 95.972,59.342 96.076,59.264 96.203 C 59.185 96.329,59.335 96.433,59.595 96.433 C 59.856 96.433,60.069 96.536,60.069 96.663 C 60.069 96.799,60.913 96.893,62.140 96.893 C 63.368 96.893,64.212 96.799,64.212 96.663 C 64.212 96.536,64.323 96.433,64.458 96.433 C 65.101 96.433,65.362 95.739,65.362 94.033 L 65.362 92.290 63.867 92.290 L 62.371 92.290 62.371 93.239 C 62.371 94.181,62.364 94.187,61.649 94.044 C 59.314 93.577,59.592 90.114,61.965 90.114 C 62.508 90.114,62.951 90.234,63.005 90.396 C 63.115 90.725,63.751 90.783,63.751 90.464 C 63.751 90.346,63.948 90.187,64.188 90.111 C 65.055 89.836,65.054 87.687,64.187 87.687 C 63.947 87.687,63.751 87.583,63.751 87.457 C 63.751 87.323,62.984 87.227,61.910 87.227 C 60.836 87.227,60.069 87.323,60.069 87.457 M66.974 92.060 L 66.974 96.893 70.196 96.893 L 73.418 96.893 73.418 95.512 L 73.418 94.131 71.692 94.131 L 69.965 94.131 69.965 90.679 L 69.965 87.227 68.470 87.227 L 66.974 87.227 66.974 92.060 M77.330 87.457 C 77.330 87.583,77.117 87.687,76.856 87.687 C 76.596 87.687,76.447 87.791,76.525 87.917 C 76.603 88.044,76.466 88.147,76.221 88.147 C 75.747 88.147,75.172 88.674,75.398 88.901 C 75.473 88.975,75.317 89.172,75.051 89.337 C 74.786 89.503,74.568 89.804,74.568 90.005 C 74.568 90.207,74.500 90.441,74.416 90.524 C 74.203 90.737,74.185 93.461,74.396 93.591 C 74.491 93.650,74.568 93.899,74.568 94.145 C 74.568 94.390,74.672 94.591,74.799 94.591 C 74.925 94.591,75.029 94.731,75.029 94.901 C 75.029 95.323,75.781 95.972,76.269 95.972 C 76.488 95.972,76.603 96.076,76.525 96.203 C 76.447 96.329,76.596 96.433,76.856 96.433 C 77.117 96.433,77.330 96.536,77.330 96.663 C 77.330 96.797,78.097 96.893,79.171 96.893 C 80.245 96.893,81.013 96.797,81.013 96.663 C 81.013 96.536,81.227 96.433,81.489 96.433 C 81.752 96.433,82.110 96.303,82.287 96.145 C 83.381 95.164,83.774 94.695,83.774 94.371 C 83.774 94.239,83.878 94.131,84.005 94.131 C 84.141 94.131,84.235 93.287,84.235 92.060 C 84.235 90.832,84.141 89.988,84.005 89.988 C 83.878 89.988,83.774 89.833,83.774 89.643 C 83.774 89.453,83.678 89.298,83.560 89.298 C 83.442 89.298,83.280 89.091,83.199 88.838 C 83.119 88.585,82.801 88.315,82.493 88.238 C 82.185 88.161,81.933 88.005,81.933 87.892 C 81.933 87.779,81.726 87.687,81.473 87.687 C 81.220 87.687,81.013 87.583,81.013 87.457 C 81.013 87.323,80.245 87.227,79.171 87.227 C 78.097 87.227,77.330 87.323,77.330 87.457 M85.386 92.060 L 85.386 96.893 88.608 96.893 C 90.602 96.893,91.830 96.805,91.830 96.663 C 91.830 96.536,91.941 96.433,92.076 96.433 C 92.395 96.433,92.980 95.847,92.980 95.529 C 92.980 95.393,93.084 95.282,93.211 95.282 C 93.719 95.282,93.474 92.488,92.923 91.998 C 92.572 91.686,92.498 91.504,92.693 91.434 C 93.025 91.315,93.103 88.838,92.775 88.838 C 92.662 88.838,92.505 88.579,92.426 88.262 C 92.332 87.891,92.120 87.687,91.825 87.687 C 91.575 87.687,91.369 87.583,91.369 87.457 C 91.369 87.315,90.219 87.227,88.377 87.227 L 85.386 87.227 85.386 92.060 M97.161 87.399 C 97.236 87.743,96.838 88.838,96.638 88.838 C 96.525 88.838,96.433 89.097,96.433 89.413 C 96.433 89.730,96.323 89.988,96.189 89.988 C 96.055 89.988,96.005 90.085,96.078 90.203 C 96.150 90.321,96.105 90.482,95.976 90.562 C 95.847 90.641,95.742 90.959,95.742 91.268 C 95.742 91.577,95.639 91.830,95.512 91.830 C 95.386 91.830,95.282 92.089,95.282 92.405 C 95.282 92.722,95.196 92.980,95.090 92.980 C 94.985 92.980,94.883 93.110,94.864 93.268 C 94.750 94.216,94.515 95.052,94.362 95.052 C 94.177 95.052,93.880 95.797,93.787 96.490 C 93.741 96.839,93.941 96.893,95.289 96.893 C 96.912 96.893,97.123 96.758,97.123 95.723 C 97.123 95.341,97.295 95.282,98.405 95.282 C 99.788 95.282,100.345 95.608,100.345 96.416 C 100.345 96.850,100.481 96.893,101.841 96.893 L 103.337 96.893 103.337 96.087 C 103.337 95.644,103.247 95.282,103.136 95.282 C 103.026 95.282,102.869 94.868,102.788 94.361 C 102.708 93.855,102.539 93.441,102.414 93.441 C 102.289 93.441,102.186 93.182,102.186 92.865 C 102.186 92.549,102.096 92.290,101.986 92.290 C 101.875 92.290,101.719 91.876,101.638 91.369 C 101.557 90.863,101.388 90.449,101.263 90.449 C 101.138 90.449,101.036 90.190,101.036 89.873 C 101.036 89.557,100.938 89.298,100.820 89.298 C 100.701 89.298,100.534 88.832,100.448 88.262 L 100.293 87.227 98.708 87.227 C 97.836 87.227,97.140 87.304,97.161 87.399 M104.028 92.060 L 104.028 96.893 107.480 96.893 L 110.932 96.893 110.932 95.512 L 110.932 94.131 109.091 94.131 L 107.250 94.131 107.250 90.679 L 107.250 87.227 105.639 87.227 L 104.028 87.227 104.028 92.060 M112.083 92.060 L 112.083 96.893 115.765 96.893 L 119.448 96.893 119.448 95.742 L 119.448 94.591 117.376 94.591 C 115.320 94.591,115.305 94.587,115.305 94.016 C 115.305 93.461,115.359 93.441,116.801 93.441 L 118.297 93.441 118.297 92.290 L 118.297 91.139 116.801 91.139 L 115.305 91.139 115.305 90.334 L 115.305 89.528 117.376 89.528 L 119.448 89.528 119.448 88.377 L 119.448 87.227 115.765 87.227 L 112.083 87.227 112.083 92.060 M89.697 89.894 C 90.130 90.327,89.778 90.669,88.895 90.675 C 88.495 90.678,88.377 90.548,88.377 90.104 C 88.377 89.422,89.109 89.306,89.697 89.894 M80.583 90.715 C 81.034 91.234,81.064 91.318,81.064 92.060 C 81.064 92.807,81.035 92.885,80.538 93.458 C 79.378 94.795,77.445 93.921,77.445 92.060 C 77.445 90.133,79.365 89.310,80.583 90.715 M98.830 92.430 C 99.345 92.627,99.283 92.980,98.734 92.980 C 98.478 92.980,98.274 92.827,98.274 92.635 C 98.274 92.248,98.316 92.232,98.830 92.430 M90.093 93.408 C 90.334 94.166,89.997 94.591,89.158 94.591 C 88.419 94.591,88.377 94.548,88.377 93.786 C 88.377 92.836,89.811 92.520,90.093 93.408 " stroke="none" fill="#29286b" fill-rule="evenodd"></path><path id="path2" d="M17.031 69.190 C 17.031 69.271,17.219 69.504,17.449 69.708 C 18.120 70.306,26.565 82.204,26.908 83.034 C 27.079 83.449,27.261 83.747,27.312 83.696 C 27.555 83.453,26.470 81.774,22.119 75.662 C 17.951 69.806,17.031 68.636,17.031 69.190 M52.782 70.829 C 49.976 73.707,44.643 80.604,44.652 81.345 C 44.653 81.479,44.913 81.136,45.229 80.583 C 45.723 79.718,46.392 78.792,47.576 77.331 C 47.730 77.141,48.390 76.312,49.041 75.489 C 51.608 72.247,53.927 69.795,54.738 69.464 C 55.081 69.324,55.078 69.306,54.709 69.291 C 54.482 69.282,53.615 69.974,52.782 70.829 M17.180 83.938 C 17.101 84.418,17.035 87.529,17.034 90.852 L 17.031 96.893 19.390 96.890 C 22.712 96.885,22.869 96.826,22.683 95.652 C 22.601 95.132,22.434 94.672,22.314 94.630 C 22.193 94.588,22.094 94.355,22.094 94.112 C 22.094 93.869,22.004 93.671,21.894 93.671 C 21.783 93.671,21.627 93.257,21.546 92.750 C 21.465 92.244,21.296 91.830,21.171 91.830 C 21.046 91.830,20.944 91.571,20.944 91.254 C 20.944 90.938,20.845 90.679,20.724 90.679 C 20.603 90.679,20.436 90.315,20.353 89.871 C 20.269 89.426,20.109 89.006,19.997 88.937 C 19.885 88.867,19.793 88.610,19.793 88.364 C 19.793 88.118,19.698 87.917,19.583 87.917 C 19.467 87.917,19.303 87.503,19.217 86.997 C 19.132 86.490,18.967 86.076,18.852 86.076 C 18.737 86.076,18.642 85.890,18.642 85.662 C 18.642 85.434,18.547 85.149,18.430 85.029 C 18.313 84.909,18.127 84.455,18.017 84.020 C 17.739 82.932,17.353 82.894,17.180 83.938 M46.037 84.925 C 45.867 85.242,45.483 85.713,45.184 85.972 L 44.640 86.444 44.702 91.611 L 44.764 96.778 47.680 96.778 C 50.721 96.778,51.126 96.676,50.711 96.012 C 50.574 95.792,50.388 95.280,50.299 94.874 C 50.210 94.468,50.042 94.077,49.925 94.005 C 49.808 93.933,49.712 93.673,49.712 93.427 C 49.712 93.181,49.618 92.980,49.502 92.980 C 49.387 92.980,49.222 92.566,49.137 92.060 C 49.051 91.554,48.887 91.139,48.771 91.139 C 48.656 91.139,48.562 90.938,48.562 90.693 C 48.562 90.447,48.458 90.182,48.331 90.104 C 48.205 90.025,48.101 89.786,48.100 89.572 C 48.099 89.358,47.944 88.886,47.755 88.524 C 47.566 88.161,47.411 87.730,47.411 87.565 C 47.411 87.400,47.323 87.231,47.216 87.188 C 47.109 87.146,46.869 86.490,46.684 85.731 C 46.355 84.385,46.339 84.364,46.037 84.925 M74.171 92.060 C 74.171 92.629,74.216 92.862,74.271 92.578 C 74.325 92.293,74.325 91.827,74.271 91.542 C 74.216 91.257,74.171 91.490,74.171 92.060 " stroke="none" fill="#414074" fill-rule="evenodd"></path><path id="path3" d="M42.257 71.251 C 42.171 71.475,42.222 71.580,42.391 71.524 C 42.735 71.409,42.924 70.886,42.621 70.886 C 42.498 70.886,42.334 71.050,42.257 71.251 M29.229 78.402 C 29.229 85.672,29.228 85.686,28.769 85.270 C 28.199 84.755,28.183 84.938,28.719 85.820 C 29.068 86.393,29.198 86.457,29.582 86.245 C 29.961 86.035,29.992 86.048,29.773 86.323 C 29.456 86.722,29.751 87.637,30.259 87.832 C 30.452 87.906,30.610 88.106,30.610 88.277 C 30.610 88.447,30.848 88.825,31.139 89.116 C 31.430 89.406,31.740 89.800,31.828 89.989 C 32.113 90.604,32.565 91.263,33.314 92.157 C 33.472 92.346,33.602 92.556,33.602 92.623 C 33.602 92.748,33.942 93.188,35.035 94.476 C 35.380 94.883,35.596 95.283,35.514 95.365 C 35.432 95.446,35.641 95.491,35.979 95.463 C 36.396 95.428,36.594 95.280,36.594 95.002 C 36.594 94.776,36.671 94.591,36.766 94.589 C 36.861 94.588,37.143 94.122,37.393 93.554 C 37.643 92.985,37.934 92.520,38.040 92.520 C 38.146 92.520,38.172 92.424,38.100 92.306 C 38.027 92.188,38.072 92.027,38.201 91.947 C 38.330 91.868,38.435 91.595,38.435 91.342 C 38.435 91.089,38.539 90.946,38.665 91.024 C 38.792 91.102,38.895 91.018,38.895 90.836 C 38.895 90.654,39.051 90.376,39.241 90.219 C 39.430 90.061,39.586 89.738,39.586 89.500 C 39.586 89.262,39.689 89.068,39.816 89.068 C 39.942 89.068,40.046 88.913,40.046 88.723 C 40.046 88.533,40.139 88.377,40.252 88.377 C 40.520 88.377,40.775 87.705,40.608 87.436 C 40.537 87.320,40.488 84.370,40.499 80.879 C 40.515 76.000,40.456 74.572,40.244 74.704 C 40.055 74.820,40.014 74.753,40.115 74.491 C 40.196 74.281,40.161 74.108,40.039 74.108 C 39.916 74.108,39.816 74.270,39.816 74.467 C 39.816 74.664,39.712 74.762,39.586 74.684 C 39.375 74.553,39.253 74.868,39.334 75.334 C 39.352 75.438,39.260 75.457,39.130 75.377 C 38.999 75.296,38.822 75.418,38.737 75.647 C 38.652 75.877,38.408 76.220,38.196 76.410 C 37.984 76.600,37.740 76.978,37.654 77.251 C 37.567 77.525,37.353 77.803,37.178 77.870 C 37.002 77.938,36.681 78.367,36.465 78.823 L 36.071 79.654 35.584 79.033 C 35.317 78.691,34.813 78.094,34.465 77.705 C 34.117 77.316,33.832 76.922,33.832 76.829 C 33.832 76.737,33.573 76.402,33.257 76.085 C 32.940 75.769,32.681 75.409,32.681 75.286 C 32.681 75.163,32.436 74.869,32.137 74.634 C 31.837 74.398,31.525 73.993,31.443 73.734 C 31.360 73.474,31.039 73.126,30.729 72.960 C 30.419 72.794,30.220 72.569,30.287 72.461 C 30.354 72.352,30.248 72.202,30.050 72.126 C 29.853 72.050,29.749 71.896,29.819 71.783 C 29.889 71.669,29.831 71.577,29.689 71.577 C 29.548 71.577,29.496 71.473,29.574 71.346 C 29.652 71.220,29.607 71.116,29.473 71.116 C 29.306 71.116,29.229 73.427,29.229 78.402 M41.128 86.674 C 40.901 86.978,40.798 87.227,40.901 87.227 C 41.101 87.227,41.736 86.307,41.615 86.191 C 41.575 86.153,41.356 86.370,41.128 86.674 M345.788 103.631 C 345.726 103.792,345.703 106.097,345.738 108.752 L 345.801 113.579 345.915 108.458 C 346.028 103.442,346.017 103.034,345.788 103.631 M181.238 125.892 C 181.238 138.107,181.266 143.104,181.300 136.997 C 181.334 130.889,181.334 120.895,181.300 114.787 C 181.266 108.680,181.238 113.677,181.238 125.892 M223.475 108.838 C 223.285 109.058,222.929 109.468,222.683 109.750 C 222.400 110.072,222.358 110.208,222.568 110.117 C 222.970 109.941,224.292 108.393,224.016 108.420 C 223.908 108.430,223.665 108.619,223.475 108.838 M195.570 112.024 C 196.614 112.067,198.323 112.067,199.367 112.024 C 200.411 111.981,199.557 111.946,197.468 111.946 C 195.380 111.946,194.525 111.981,195.570 112.024 M117.982 112.264 C 117.920 112.364,118.127 112.467,118.441 112.493 C 118.771 112.520,118.953 112.443,118.871 112.311 C 118.703 112.039,118.140 112.009,117.982 112.264 M240.849 113.469 C 240.760 113.612,240.972 113.683,241.394 113.651 C 241.775 113.622,242.035 113.516,241.973 113.416 C 241.811 113.154,241.020 113.191,240.849 113.469 M29.689 113.924 C 29.689 114.064,30.618 114.148,32.048 114.138 C 33.581 114.128,34.246 114.053,33.947 113.924 C 33.291 113.642,29.689 113.642,29.689 113.924 M358.803 113.924 C 358.803 114.061,359.685 114.154,360.990 114.154 C 362.294 114.154,363.176 114.061,363.176 113.924 C 363.176 113.787,362.294 113.694,360.990 113.694 C 359.685 113.694,358.803 113.787,358.803 113.924 M345.652 122.497 C 345.607 122.655,345.623 127.704,345.689 133.717 L 345.809 144.649 345.862 133.429 C 345.911 123.088,345.884 121.685,345.652 122.497 M328.654 123.130 C 328.654 123.418,328.898 123.418,329.344 123.130 C 329.623 122.950,329.590 122.906,329.171 122.903 C 328.887 122.901,328.654 123.003,328.654 123.130 M193.786 129.574 C 193.786 129.719,195.320 129.804,197.929 129.804 C 200.537 129.804,202.071 129.719,202.071 129.574 C 202.071 129.429,200.537 129.344,197.929 129.344 C 195.320 129.344,193.786 129.429,193.786 129.574 M153.582 130.437 C 155.710 130.475,159.128 130.475,161.177 130.437 C 163.226 130.399,161.484 130.368,157.307 130.368 C 153.130 130.368,151.454 130.399,153.582 130.437 M104.488 134.407 C 104.063 134.787,103.811 135.095,103.929 135.091 C 104.144 135.085,105.582 133.717,105.373 133.717 C 105.312 133.717,104.913 134.028,104.488 134.407 M322.094 133.863 C 323.703 134.033,326.071 134.049,325.972 133.890 C 325.913 133.795,324.861 133.733,323.634 133.754 C 322.408 133.774,321.715 133.823,322.094 133.863 M240.815 138.134 C 241.266 138.298,241.622 138.298,241.965 138.131 C 242.382 137.930,242.275 137.891,241.312 137.893 C 240.250 137.896,240.212 137.914,240.815 138.134 M218.681 139.919 C 218.546 140.305,218.485 140.621,218.545 140.621 C 218.700 140.621,219.134 139.426,219.020 139.312 C 218.968 139.260,218.815 139.533,218.681 139.919 M306.138 139.943 C 306.272 140.329,306.425 140.602,306.477 140.550 C 306.591 140.436,306.157 139.241,306.002 139.241 C 305.942 139.241,306.003 139.556,306.138 139.943 M75.216 141.944 C 77.535 141.982,81.263 141.982,83.502 141.944 C 85.740 141.907,83.843 141.876,79.287 141.876 C 74.730 141.876,72.898 141.907,75.216 141.944 M282.121 141.944 C 284.439 141.982,288.168 141.982,290.406 141.944 C 292.645 141.907,290.748 141.876,286.191 141.876 C 281.634 141.876,279.802 141.907,282.121 141.944 M18.872 149.597 C 18.872 149.746,21.557 149.827,26.467 149.827 C 31.377 149.827,34.062 149.746,34.062 149.597 C 34.062 149.448,31.377 149.367,26.467 149.367 C 21.557 149.367,18.872 149.448,18.872 149.597 M57.768 149.597 C 58.236 149.900,66.743 149.900,66.743 149.597 C 66.743 149.451,65.039 149.368,62.083 149.371 C 58.989 149.373,57.538 149.449,57.768 149.597 M91.830 149.597 C 92.295 149.898,100.735 149.898,100.921 149.597 C 101.014 149.447,99.409 149.368,96.274 149.371 C 93.097 149.373,91.601 149.449,91.830 149.597 M138.435 149.597 C 138.522 149.738,140.312 149.827,143.038 149.827 C 145.764 149.827,147.554 149.738,147.641 149.597 C 147.734 149.447,146.143 149.367,143.038 149.367 C 139.933 149.367,138.342 149.447,138.435 149.597 M166.513 149.597 C 166.600 149.738,168.391 149.827,171.116 149.827 C 173.842 149.827,175.632 149.738,175.719 149.597 C 175.812 149.447,174.221 149.367,171.116 149.367 C 168.011 149.367,166.420 149.447,166.513 149.597 M182.739 149.597 C 183.216 149.906,205.448 149.906,205.639 149.597 C 205.733 149.445,201.825 149.368,194.087 149.371 C 186.452 149.373,182.513 149.452,182.739 149.597 M264.442 149.597 C 264.914 149.902,273.721 149.902,273.533 149.597 C 273.445 149.456,271.597 149.368,268.744 149.371 C 265.658 149.373,264.213 149.449,264.442 149.597 M298.504 149.597 C 298.970 149.898,307.409 149.898,307.595 149.597 C 307.688 149.447,306.083 149.368,302.948 149.371 C 299.771 149.373,298.275 149.449,298.504 149.597 M310.357 149.597 C 310.444 149.738,312.239 149.827,314.973 149.827 C 317.803 149.827,319.448 149.743,319.448 149.597 C 319.448 149.451,317.755 149.367,314.831 149.367 C 311.812 149.367,310.264 149.447,310.357 149.597 M335.673 149.597 C 335.761 149.739,337.747 149.827,340.865 149.827 C 344.078 149.827,345.915 149.744,345.915 149.597 C 345.915 149.451,344.031 149.367,340.723 149.367 C 337.320 149.367,335.580 149.446,335.673 149.597 M347.986 149.597 C 347.986 149.746,350.667 149.827,355.568 149.827 C 360.374 149.827,363.201 149.743,363.291 149.597 C 363.385 149.446,360.800 149.367,355.710 149.367 C 350.714 149.367,347.986 149.448,347.986 149.597 " stroke="none" fill="#bf3cf1" fill-rule="evenodd"></path><path id="path4" d="M59.033 59.839 C 59.118 59.976,58.848 60.069,58.370 60.069 C 57.927 60.069,57.509 60.159,57.441 60.269 C 57.373 60.379,56.901 60.535,56.392 60.617 C 55.883 60.698,55.466 60.867,55.466 60.992 C 55.466 61.117,55.259 61.220,55.006 61.220 C 54.753 61.220,54.545 61.315,54.545 61.432 C 54.545 61.548,54.235 61.712,53.855 61.795 C 53.475 61.879,53.165 62.023,53.165 62.116 C 53.165 62.209,52.806 62.425,52.369 62.597 C 51.931 62.769,51.520 63.047,51.455 63.215 C 51.391 63.384,51.180 63.521,50.988 63.521 C 50.660 63.521,50.420 63.684,49.175 64.756 C 48.901 64.992,48.318 65.458,47.879 65.791 C 46.440 66.885,43.055 70.350,42.820 70.970 C 42.675 71.350,42.415 71.577,42.123 71.577 C 41.853 71.577,41.657 71.728,41.657 71.938 C 41.657 72.359,41.085 72.999,40.886 72.800 C 40.812 72.726,40.794 72.889,40.847 73.163 C 40.900 73.439,40.845 73.600,40.724 73.525 C 40.604 73.451,40.506 73.500,40.506 73.634 C 40.506 73.768,40.325 73.886,40.104 73.896 C 39.882 73.906,39.824 73.965,39.976 74.026 C 40.127 74.088,40.187 74.304,40.109 74.506 C 40.014 74.755,40.057 74.819,40.244 74.704 C 40.456 74.572,40.517 75.989,40.506 80.822 C 40.499 84.281,40.496 87.212,40.499 87.335 C 40.503 87.459,40.669 87.327,40.867 87.044 C 41.066 86.760,41.341 86.598,41.478 86.683 C 41.624 86.773,41.662 86.731,41.571 86.583 C 41.484 86.442,41.597 86.112,41.823 85.849 C 42.223 85.381,42.260 85.288,42.319 84.580 C 42.335 84.390,42.503 84.235,42.693 84.235 C 42.883 84.235,43.038 84.127,43.038 83.995 C 43.038 83.863,43.245 83.533,43.498 83.261 C 43.751 82.989,43.959 82.642,43.959 82.490 C 43.959 82.337,44.114 82.153,44.304 82.080 C 44.506 82.003,44.649 81.658,44.649 81.250 C 44.649 80.866,44.753 80.552,44.879 80.552 C 45.006 80.552,45.109 80.354,45.109 80.111 C 45.109 79.869,45.188 79.636,45.284 79.593 C 45.380 79.551,45.820 79.051,46.262 78.482 C 50.887 72.527,54.032 69.147,54.770 69.340 C 55.125 69.433,55.504 69.224,56.176 68.566 C 56.682 68.070,57.148 67.664,57.211 67.664 C 57.323 67.664,57.666 67.400,58.334 66.801 C 58.511 66.643,58.766 66.513,58.902 66.513 C 59.037 66.513,59.148 66.432,59.148 66.333 C 59.148 66.234,59.848 65.794,60.702 65.355 C 61.556 64.916,62.290 64.479,62.332 64.384 C 62.374 64.289,62.659 64.212,62.965 64.212 C 63.271 64.212,63.521 64.116,63.521 63.998 C 63.521 63.881,64.091 63.713,64.787 63.626 C 65.483 63.539,66.053 63.377,66.053 63.265 C 66.053 63.153,67.037 63.061,68.239 63.061 C 69.544 63.061,70.426 63.154,70.426 63.291 C 70.426 63.418,70.736 63.521,71.116 63.521 C 71.699 63.521,71.807 63.432,71.807 62.946 C 71.807 62.588,71.676 62.371,71.461 62.371 C 71.272 62.371,71.116 62.274,71.116 62.156 C 71.116 62.038,70.883 61.869,70.598 61.780 C 70.314 61.691,70.029 61.549,69.965 61.464 C 69.750 61.177,68.172 60.529,67.687 60.529 C 67.421 60.529,67.204 60.426,67.204 60.299 C 67.204 60.173,66.951 60.069,66.642 60.069 C 66.333 60.069,66.016 59.965,65.938 59.839 C 65.853 59.702,64.397 59.609,62.343 59.609 C 60.100 59.609,58.941 59.689,59.033 59.839 " stroke="none" fill="#d647e1" fill-rule="evenodd"></path></g></svg>